<svg xmlns="http://www.w3.org/2000/svg" viewBox="0 0 24 24">
  <path d="M12.19 2.38a9.344 9.344 0 0 0-9.234 6.893c.053-.02-.055.013 0 0C1.317 9.773 0 11.410 0 13.326c0 2.685 2.178 4.864 4.862 4.864h14.93c2.318 0 4.208-1.889 4.208-4.208 0-2.143-1.600-3.945-3.742-4.175a7.558 7.558 0 0 0-8.06-7.409z" fill="#4285F4"/>
  <path d="M12 4.5a7.5 7.5 0 0 1 7.5 7.5H12V4.5z" fill="#34A853"/>
  <path d="M4.5 12a7.5 7.5 0 0 1 7.5-7.5V12H4.5z" fill="#FBBC05"/>
  <path d="M12 19.5a7.5 7.5 0 0 1-7.5-7.5H12v7.5z" fill="#EA4335"/>
</svg>
